<svg id="Primary_on_Gray" xmlns="http://www.w3.org/2000/svg" viewBox="0 0 1000 333"><defs><style>.cls-1{fill:#1e8194;}.cls-2{fill:#202d38;}</style></defs><title>Logo-2018 copy</title><g id="opt_12_" data-name="opt 12  $#@#$#$%"><path class="cls-1" d="M119.12,156.87c-9.2,3.43-16.68,9.34-21.23,16.69A2.25,2.25,0,0,0,99.77,177h58.42a2.34,2.34,0,0,0,2.1-1.62A39.4,39.4,0,0,1,167,163h0a45.84,45.84,0,0,0-10.59-5.88,2,2,0,0,1-.61-3.37,27,27,0,1,0-36.1.48A1.59,1.59,0,0,1,119.12,156.87Z"/><path class="cls-1" d="M195.89,150.77a52.12,52.12,0,0,0-19.56,12,43.62,43.62,0,0,0-4,4.7,37.79,37.79,0,0,0-3.9,6.45,2.19,2.19,0,0,0,2,3.07h91.2a2.24,2.24,0,0,0,2-3.25,39.45,39.45,0,0,0-7.15-10.3,51.7,51.7,0,0,0-20.13-12.66,1.68,1.68,0,0,1-.59-2.87A31.16,31.16,0,0,0,246.49,117a30.21,30.21,0,0,0-8.25-14.86c-6.56-6.61-12.93-8.72-19-9.32-.4,0-.79,0-1.19-.06-.78-.05-1.56-.1-2.33-.09-.43,0-.85,0-1.28.07-.71,0-1.42.08-2.12.16-.45.06-.89.13-1.33.21-.66.11-1.32.23-2,.38-.45.1-.88.21-1.32.34-.63.17-1.25.37-1.86.58-.42.15-.84.29-1.26.46-.61.24-1.21.52-1.81.8-.38.18-.76.35-1.13.54-.64.34-1.25.71-1.86,1.08l-.91.55c-.8.53-1.57,1.1-2.31,1.7l-.27.2c-.82.68-1.61,1.41-2.36,2.17-.22.22-.41.46-.62.68-.52.55-1,1.11-1.5,1.7-.25.31-.48.64-.71,1-.41.54-.8,1.08-1.17,1.65-.23.36-.44.73-.66,1.09-.33.56-.65,1.13-.94,1.7-.2.4-.39.8-.58,1.2-.27.59-.51,1.19-.75,1.79-.15.42-.31.83-.45,1.25-.21.64-.39,1.29-.57,1.94-.1.41-.22.82-.31,1.23-.16.73-.28,1.47-.39,2.22-.05.36-.12.71-.16,1.08a31.84,31.84,0,0,0-.19,3.4A31.08,31.08,0,0,0,196.48,148,1.62,1.62,0,0,1,195.89,150.77Z"/><path class="cls-1" d="M302.93,144.64a32.36,32.36,0,0,0-40.61-31.42A40.67,40.67,0,0,0,216,76.53a47.34,47.34,0,0,0-82.71,13.56,43.07,43.07,0,0,0-33,19.17,34.92,34.92,0,1,0-12,68.26c3.42-9.82,11.35-18.57,21.51-24A33.89,33.89,0,0,1,137.49,100a35.94,35.94,0,0,1,7.21.74,33.91,33.91,0,0,1,20.53,52.7,50.77,50.77,0,0,1,6.41,4.17,57.43,57.43,0,0,1,14.47-10.29,38.11,38.11,0,0,1,29.95-61.68,39.79,39.79,0,0,1,8.17.86A38.1,38.1,0,0,1,246,147.36a57.16,57.16,0,0,1,15.46,11.27,48.62,48.62,0,0,1,11,18.4A32.46,32.46,0,0,0,302.93,144.64Z"/></g><g id="tag"><path id="DaaS_text" data-name="DaaS text" class="cls-2" d="M374.16,237.22a24.6,24.6,0,0,1-.89,6.76,18.2,18.2,0,0,1-2.69,5.69,17.62,17.62,0,0,1-4.48,4.38,20.92,20.92,0,0,1-6.28,2.85,25.5,25.5,0,0,1-4.45.82c-1.59.15-3.33.23-5.19.23h-9.3V216.87h9.4c1.86,0,3.59.07,5.18.23a24.73,24.73,0,0,1,4.46.81,21.72,21.72,0,0,1,6.27,2.83,17.19,17.19,0,0,1,4.46,4.28,18.17,18.17,0,0,1,2.64,5.56A24.34,24.34,0,0,1,374.16,237.22Zm-5,0a16.21,16.21,0,0,0-2.62-9.61,14.06,14.06,0,0,0-7.49-5.22,20.87,20.87,0,0,0-4.17-.79c-1.54-.15-3.27-.22-5.2-.22h-3.82v32.05h3.82c1.93,0,3.66-.07,5.2-.21a20.17,20.17,0,0,0,4.17-.8,13.67,13.67,0,0,0,7.49-5.37A17.06,17.06,0,0,0,369.19,237.22ZM382.64,222v-5.32h4.75V222Zm.12,35.95V228.78h4.76V258ZM413,232.65h-.37a17.35,17.35,0,0,0-3.31.31,13.62,13.62,0,0,0-3.06.93,11.86,11.86,0,0,0-2.58,1.55,8.32,8.32,0,0,0-1.92,2.18V258H397V228.78h3.69l.92,4.64h.09a10.5,10.5,0,0,1,1.74-2.12,11.38,11.38,0,0,1,2.31-1.72,11.66,11.66,0,0,1,2.83-1.15,12.15,12.15,0,0,1,3.22-.42l.63,0,.57,0Zm18.91,21.92a23,23,0,0,0,4.32-.38,26.46,26.46,0,0,0,3.88-1.09v4a15.65,15.65,0,0,1-3.87,1.21,26.54,26.54,0,0,1-4.94.44,21,21,0,0,1-5.88-.79,12.29,12.29,0,0,1-4.76-2.58,12,12,0,0,1-3.15-4.65,19.05,19.05,0,0,1-1.13-6.93,19.74,19.74,0,0,1,1.1-6.92,14.64,14.64,0,0,1,2.94-4.9,11.89,11.89,0,0,1,4.23-2.94,12.88,12.88,0,0,1,5-1,12.7,12.7,0,0,1,4.57.82,9.33,9.33,0,0,1,3.7,2.56,12.54,12.54,0,0,1,2.46,4.51,21.29,21.29,0,0,1,.91,6.63v.63c0,.18,0,.57,0,1.19H421.14a12,12,0,0,0,.84,4.74,8.32,8.32,0,0,0,2.3,3.16,9.18,9.18,0,0,0,3.43,1.77A15.46,15.46,0,0,0,431.94,254.57Zm-2.51-22.47a7.26,7.26,0,0,0-3.06.64,7.87,7.87,0,0,0-2.47,1.75,8.64,8.64,0,0,0-1.71,2.6,9.94,9.94,0,0,0-.81,3.17H436.3a11.12,11.12,0,0,0-.45-3.21,7.82,7.82,0,0,0-1.32-2.59,6.05,6.05,0,0,0-2.15-1.73A6.54,6.54,0,0,0,429.43,232.1ZM461.91,228a17.83,17.83,0,0,1,4,.45,12.29,12.29,0,0,1,3.32,1.24v4a25.8,25.8,0,0,0-3.57-1.1,14.67,14.67,0,0,0-3.31-.37,11,11,0,0,0-3.53.58,8.17,8.17,0,0,0-3.13,1.92,9.51,9.51,0,0,0-2.23,3.53,15.38,15.38,0,0,0-.84,5.45,14.4,14.4,0,0,0,.63,4.36,9.59,9.59,0,0,0,1.87,3.45,8.41,8.41,0,0,0,3.11,2.28,10.82,10.82,0,0,0,4.33.81,17.59,17.59,0,0,0,3.59-.38,21,21,0,0,0,3.54-1.09v4a8.71,8.71,0,0,1-1.37.61,15.34,15.34,0,0,1-1.86.54c-.67.15-1.39.27-2.15.37a19.07,19.07,0,0,1-2.27.13,17.07,17.07,0,0,1-5.57-.89,12.41,12.41,0,0,1-4.59-2.73,12.74,12.74,0,0,1-3.1-4.67,17.81,17.81,0,0,1-1.14-6.69,20.67,20.67,0,0,1,.6-5.19,15.81,15.81,0,0,1,1.64-4,12.44,12.44,0,0,1,2.44-3,14.32,14.32,0,0,1,3-2,13.64,13.64,0,0,1,3.27-1.13A15.77,15.77,0,0,1,461.91,228Zm30.42,30a9.88,9.88,0,0,1-1.87.46,20.73,20.73,0,0,1-3,.24,12.81,12.81,0,0,1-4-.56,7.47,7.47,0,0,1-2.81-1.63A6.62,6.62,0,0,1,479,254a9.65,9.65,0,0,1-.56-3.35V232.86h-5.61v-4.08h5.61v-8h4.76v8h8.72v4.08h-8.72v17a6,6,0,0,0,.29,1.88,3.8,3.8,0,0,0,.93,1.48,4.23,4.23,0,0,0,1.61,1,7.12,7.12,0,0,0,2.36.35,14.33,14.33,0,0,0,2-.15,18.05,18.05,0,0,0,1.95-.4Zm32.45-14.62a18.83,18.83,0,0,1-1,6.27,14,14,0,0,1-2.78,4.83,12.28,12.28,0,0,1-4.34,3.12,14.18,14.18,0,0,1-5.71,1.1,14.52,14.52,0,0,1-5.82-1.1,12.36,12.36,0,0,1-4.36-3.12,13.79,13.79,0,0,1-2.75-4.83,19.65,19.65,0,0,1-1-6.27,19.22,19.22,0,0,1,1-6.29,14.36,14.36,0,0,1,2.78-4.85,12.26,12.26,0,0,1,4.36-3.13,14.28,14.28,0,0,1,5.73-1.11,14.53,14.53,0,0,1,5.8,1.11,12.08,12.08,0,0,1,4.36,3.13,13.94,13.94,0,0,1,2.73,4.85A19.5,19.5,0,0,1,524.78,243.39Zm-5,0a16,16,0,0,0-.66-4.8,10.79,10.79,0,0,0-1.84-3.56,7.87,7.87,0,0,0-2.81-2.21,8.82,8.82,0,0,0-7.12,0,7.7,7.7,0,0,0-2.81,2.21,10.81,10.81,0,0,0-1.85,3.56,17.71,17.71,0,0,0,0,9.58,10.44,10.44,0,0,0,1.86,3.54,7.9,7.9,0,0,0,2.83,2.2,8.38,8.38,0,0,0,3.56.75,8.26,8.26,0,0,0,3.54-.75,7.8,7.8,0,0,0,2.8-2.2,10.59,10.59,0,0,0,1.84-3.54A15.92,15.92,0,0,0,519.81,243.39Zm28.49-10.74h-.37a17.35,17.35,0,0,0-3.31.31,13.62,13.62,0,0,0-3.06.93,11.86,11.86,0,0,0-2.58,1.55,8.51,8.51,0,0,0-1.92,2.18V258h-4.75V228.78H536l.92,4.64H537a10.84,10.84,0,0,1,1.74-2.12,11.45,11.45,0,0,1,2.32-1.72,11.75,11.75,0,0,1,2.82-1.15,12.15,12.15,0,0,1,3.22-.42l.63,0,.57,0Zm4.49-3.87h4.76l9.06,22.87h.19l9.3-22.87h4.75l-18.06,43.44h-4.72l6.23-14.86Zm32.91,11.64h13.54v4.45H585.7Zm38.9,14.3h-.12a9.67,9.67,0,0,1-1.47,1.46,11,11,0,0,1-2.06,1.29,13,13,0,0,1-2.55.91,12.64,12.64,0,0,1-2.95.33,11.74,11.74,0,0,1-3.88-.62,8.46,8.46,0,0,1-3-1.85,8.2,8.2,0,0,1-2-3,10.55,10.55,0,0,1-.7-4,9.37,9.37,0,0,1,.78-3.9,8.32,8.32,0,0,1,2.19-2.92,10.1,10.1,0,0,1,3.4-1.84,14,14,0,0,1,4.37-.64,23.79,23.79,0,0,1,4.21.4,21.34,21.34,0,0,1,3.44.92h.12v-2a12.2,12.2,0,0,0-.16-2.12,5.23,5.23,0,0,0-.52-1.62,6.17,6.17,0,0,0-2.55-2.45,9.82,9.82,0,0,0-4.72-1,20.38,20.38,0,0,0-4.16.41,26.89,26.89,0,0,0-3.89,1.15v-4a13.71,13.71,0,0,1,1.74-.69,20.06,20.06,0,0,1,2.1-.55,23.25,23.25,0,0,1,2.33-.35c.82-.08,1.64-.13,2.46-.13a14.67,14.67,0,0,1,7.23,1.57,9.32,9.32,0,0,1,4,4.14,9,9,0,0,1,.66,2.17,15.94,15.94,0,0,1,.2,2.59V258h-4Zm-.24-9.58c-.88-.24-1.92-.48-3.12-.7a22.91,22.91,0,0,0-4-.37,7.72,7.72,0,0,0-4.74,1.29,4.64,4.64,0,0,0-1.71,4,5.92,5.92,0,0,0,.43,2.36,4.45,4.45,0,0,0,1.17,1.68,4.89,4.89,0,0,0,1.78,1,7.37,7.37,0,0,0,2.18.32,9,9,0,0,0,2.84-.44,12.05,12.05,0,0,0,2.34-1.06,13.09,13.09,0,0,0,1.74-1.23c.48-.41.84-.73,1.06-1Zm17.38-8.59a3.38,3.38,0,0,0,.51,2,3.81,3.81,0,0,0,1.36,1.25,9,9,0,0,0,2,.78c.75.2,1.53.39,2.33.55,1.1.25,2.14.52,3.12.82a9,9,0,0,1,2.71,1.33,6.48,6.48,0,0,1,2,2.41,8.8,8.8,0,0,1,.76,3.95,8.49,8.49,0,0,1-.86,3.91,7.94,7.94,0,0,1-2.42,2.86,11.5,11.5,0,0,1-3.75,1.75,18,18,0,0,1-4.79.59,23.34,23.34,0,0,1-2.9-.16,20.73,20.73,0,0,1-2.3-.43c-.66-.18-1.23-.36-1.7-.54s-.86-.36-1.17-.52v-4a24.15,24.15,0,0,0,3.59,1.16,16.46,16.46,0,0,0,3.92.43,13.53,13.53,0,0,0,3-.31,7.72,7.72,0,0,0,2.34-.9,4.25,4.25,0,0,0,1.5-1.51,4.09,4.09,0,0,0,.53-2.1,3.85,3.85,0,0,0-.48-2,3.91,3.91,0,0,0-1.3-1.32,7.57,7.57,0,0,0-1.88-.86c-.72-.23-1.46-.43-2.25-.62-1-.22-2.06-.49-3.12-.8a10.53,10.53,0,0,1-2.87-1.29,6.15,6.15,0,0,1-2.1-2.25,7.5,7.5,0,0,1-.8-3.67,9,9,0,0,1,.83-4,7.92,7.92,0,0,1,2.24-2.8,9.7,9.7,0,0,1,3.29-1.65,13.78,13.78,0,0,1,4-.56,21.13,21.13,0,0,1,4.49.46,22.6,22.6,0,0,1,3.77,1.17v4.05a28.41,28.41,0,0,0-3.64-1.15,17.71,17.71,0,0,0-3.79-.47,10.49,10.49,0,0,0-2.82.33,5.55,5.55,0,0,0-1.92.94,3.59,3.59,0,0,0-1.09,1.41A4.55,4.55,0,0,0,641.74,236.55Zm21.09,3.87h13.54v4.45H662.83Zm38.9,14.3h-.13a9.23,9.23,0,0,1-1.47,1.46,11,11,0,0,1-2.06,1.29,12.78,12.78,0,0,1-2.55.91,12.61,12.61,0,0,1-2.94.33,11.75,11.75,0,0,1-3.89-.62,8.26,8.26,0,0,1-5-4.81,10.55,10.55,0,0,1-.7-4,9.37,9.37,0,0,1,.78-3.9,8.35,8.35,0,0,1,2.2-2.92,10,10,0,0,1,3.39-1.84,14.07,14.07,0,0,1,4.37-.64,23.79,23.79,0,0,1,4.21.4,21.06,21.06,0,0,1,3.44.92h.12v-2a13.36,13.36,0,0,0-.15-2.12,5.51,5.51,0,0,0-.53-1.62,6.2,6.2,0,0,0-2.54-2.45,9.9,9.9,0,0,0-4.73-1,20.45,20.45,0,0,0-4.16.41,26.41,26.41,0,0,0-3.88,1.15v-4a14.14,14.14,0,0,1,1.73-.69,20.74,20.74,0,0,1,2.1-.55,23,23,0,0,1,2.34-.35c.81-.08,1.63-.13,2.45-.13a14.67,14.67,0,0,1,7.23,1.57,9.26,9.26,0,0,1,4,4.14,8.2,8.2,0,0,1,.66,2.17,15.94,15.94,0,0,1,.2,2.59V258h-4Zm-.25-9.58c-.87-.24-1.91-.48-3.12-.7a22.81,22.81,0,0,0-4-.37,7.72,7.72,0,0,0-4.74,1.29,4.64,4.64,0,0,0-1.71,4,5.92,5.92,0,0,0,.43,2.36,4.48,4.48,0,0,0,1.18,1.68,4.85,4.85,0,0,0,1.77,1,7.37,7.37,0,0,0,2.18.32,9.05,9.05,0,0,0,2.85-.44,12.23,12.23,0,0,0,2.33-1.06,12.61,12.61,0,0,0,1.75-1.23c.47-.41.83-.73,1.05-1Zm13-4.72h13.54v4.45H714.53Zm25.2-12.68a5.57,5.57,0,0,0,.74,3,6,6,0,0,0,2,2,12.27,12.27,0,0,0,2.88,1.26c1.09.33,2.23.63,3.41.92,1.6.39,3.16.82,4.71,1.29a14.86,14.86,0,0,1,4.11,1.95,9.53,9.53,0,0,1,2.93,3.24,10.47,10.47,0,0,1,1.11,5.12,11.89,11.89,0,0,1-1.2,5.52,10.57,10.57,0,0,1-3.35,3.8A14.87,14.87,0,0,1,752,258a26.56,26.56,0,0,1-6.38.72,28.33,28.33,0,0,1-3.27-.19c-1.12-.14-2.18-.32-3.19-.54a24.31,24.31,0,0,1-2.75-.77,10.79,10.79,0,0,1-1.94-.86v-4.57a21.1,21.1,0,0,0,2.49,1,25.51,25.51,0,0,0,2.86.78,29.71,29.71,0,0,0,3,.51,24,24,0,0,0,2.83.18,21.71,21.71,0,0,0,4.1-.37,10.57,10.57,0,0,0,3.42-1.22,6.4,6.4,0,0,0,2.33-2.35,7.3,7.3,0,0,0,.86-3.73,5.64,5.64,0,0,0-.75-3,6.14,6.14,0,0,0-2-2,12.23,12.23,0,0,0-2.9-1.28c-1.09-.32-2.25-.63-3.45-.92-1.6-.37-3.16-.78-4.69-1.24a14.75,14.75,0,0,1-4.08-1.92,9.33,9.33,0,0,1-2.89-3.16,10.06,10.06,0,0,1-1.09-4.94,11.68,11.68,0,0,1,1.15-5.39,10.54,10.54,0,0,1,3.1-3.73,13.09,13.09,0,0,1,4.5-2.18,20.37,20.37,0,0,1,5.44-.71,28.19,28.19,0,0,1,6.12.63,29.76,29.76,0,0,1,5.21,1.64V223a35.39,35.39,0,0,0-5.27-1.75,25.07,25.07,0,0,0-5.82-.71,14.35,14.35,0,0,0-4,.51A8,8,0,0,0,742,222.5a5.79,5.79,0,0,0-1.69,2.27A7.67,7.67,0,0,0,739.73,227.74Zm43.94,26.83a22.81,22.81,0,0,0,4.31-.38,26.58,26.58,0,0,0,3.89-1.09v4a15.93,15.93,0,0,1-3.87,1.21,26.65,26.65,0,0,1-5,.44,21,21,0,0,1-5.87-.79,12.22,12.22,0,0,1-4.76-2.58,12,12,0,0,1-3.15-4.65,18.83,18.83,0,0,1-1.14-6.93,19.5,19.5,0,0,1,1.11-6.92,14.62,14.62,0,0,1,2.93-4.9A12,12,0,0,1,776.4,229a13,13,0,0,1,5-1,12.7,12.7,0,0,1,4.57.82,9.29,9.29,0,0,1,3.69,2.56,12.55,12.55,0,0,1,2.47,4.51,21.61,21.61,0,0,1,.9,6.63v.63c0,.18,0,.57,0,1.19H772.86a11.78,11.78,0,0,0,.85,4.74,8.32,8.32,0,0,0,2.3,3.16,9.14,9.14,0,0,0,3.42,1.77A15.53,15.53,0,0,0,783.67,254.57Zm-2.51-22.47a7.26,7.26,0,0,0-3.06.64,7.91,7.91,0,0,0-2.48,1.75,8.8,8.8,0,0,0-1.7,2.6,9.94,9.94,0,0,0-.81,3.17H788a11.12,11.12,0,0,0-.45-3.21,7.82,7.82,0,0,0-1.32-2.59,6.14,6.14,0,0,0-2.15-1.73A6.57,6.57,0,0,0,781.16,232.1Zm35.94.55h-.37a17.35,17.35,0,0,0-3.31.31,13.78,13.78,0,0,0-3.06.93,11.86,11.86,0,0,0-2.58,1.55,8.47,8.47,0,0,0-1.91,2.18V258h-4.76V228.78h3.68l.92,4.64h.09a10.84,10.84,0,0,1,1.74-2.12,11.86,11.86,0,0,1,5.14-2.87,12.22,12.22,0,0,1,3.23-.42l.62,0,.57,0Zm18,20.48c.7-2.13,1.66-4.84,2.86-8.14l5.84-16.21h4.76l-11,29.17h-4.94l-11-29.17h4.76L832.16,245c1.15,3.19,2.09,5.91,2.84,8.14ZM854.51,222v-5.32h4.76V222Zm.12,35.95V228.78h4.76V258ZM881.43,228a17.76,17.76,0,0,1,4.05.45,12.16,12.16,0,0,1,3.32,1.24v4a26.12,26.12,0,0,0-3.56-1.1,14.76,14.76,0,0,0-3.32-.37,11.11,11.11,0,0,0-3.53.58,8.25,8.25,0,0,0-3.13,1.92,9.77,9.77,0,0,0-2.23,3.53,15.38,15.38,0,0,0-.84,5.45,14.4,14.4,0,0,0,.63,4.36,9.74,9.74,0,0,0,1.87,3.45,8.37,8.37,0,0,0,3.12,2.28,10.82,10.82,0,0,0,4.33.81,17.74,17.74,0,0,0,3.59-.38,20.88,20.88,0,0,0,3.53-1.09v4a8.31,8.31,0,0,1-1.37.61,15.7,15.7,0,0,1-1.85.54c-.68.15-1.4.27-2.15.37a19.32,19.32,0,0,1-2.27.13,17.08,17.08,0,0,1-5.58-.89,12.41,12.41,0,0,1-4.59-2.73,13,13,0,0,1-3.1-4.67,18,18,0,0,1-1.13-6.69,20.67,20.67,0,0,1,.6-5.19,15.12,15.12,0,0,1,1.64-4,12.21,12.21,0,0,1,2.44-3,13.81,13.81,0,0,1,3-2,13.35,13.35,0,0,1,3.27-1.13A15.68,15.68,0,0,1,881.43,228Zm28.89,26.56a23,23,0,0,0,4.32-.38,26.46,26.46,0,0,0,3.88-1.09v4a15.65,15.65,0,0,1-3.87,1.21,26.54,26.54,0,0,1-4.94.44,21,21,0,0,1-5.88-.79,12.29,12.29,0,0,1-4.76-2.58,12,12,0,0,1-3.15-4.65,19.05,19.05,0,0,1-1.13-6.93,19.74,19.74,0,0,1,1.1-6.92,14.64,14.64,0,0,1,2.94-4.9,11.89,11.89,0,0,1,4.23-2.94,12.88,12.88,0,0,1,5-1,12.7,12.7,0,0,1,4.57.82,9.33,9.33,0,0,1,3.7,2.56,12.54,12.54,0,0,1,2.46,4.51,21.29,21.29,0,0,1,.91,6.63v.63c0,.18,0,.57,0,1.19H899.51a12,12,0,0,0,.85,4.74,8.32,8.32,0,0,0,2.3,3.16,9.18,9.18,0,0,0,3.43,1.77A15.46,15.46,0,0,0,910.32,254.57Zm-2.51-22.47a7.26,7.26,0,0,0-3.06.64,7.87,7.87,0,0,0-2.47,1.75,8.64,8.64,0,0,0-1.71,2.6,9.94,9.94,0,0,0-.81,3.17h14.92a11.12,11.12,0,0,0-.45-3.21,7.82,7.82,0,0,0-1.32-2.59,6.05,6.05,0,0,0-2.15-1.73A6.54,6.54,0,0,0,907.81,232.1Z"/><path class="cls-2" d="M931.79,218.4a3.95,3.95,0,1,0,3.93,3.92A3.92,3.92,0,0,0,931.79,218.4Zm0,7.06a3.14,3.14,0,1,1,2.93-3.11A3,3,0,0,1,931.81,225.46Z"/><path class="cls-2" d="M933.38,223.4a1.16,1.16,0,0,0-.7-1v-.05a1,1,0,0,0,.8-.9,1.08,1.08,0,0,0-.38-.86,2.32,2.32,0,0,0-1.33-.29,7.82,7.82,0,0,0-1.48.12v3.92h.89V222.8h.42c.5,0,.73.19.8.62a3.74,3.74,0,0,0,.3,1h1A3.18,3.18,0,0,1,933.38,223.4Zm-1.75-1.24h-.42V221a2.39,2.39,0,0,1,.49,0c.56,0,.82.24.82.59S932.12,222.16,931.63,222.16Z"/></g><path id="jumpcloud" class="cls-2" d="M367.42,89h15.86v64a38,38,0,0,1-.61,7.34,19.89,19.89,0,0,1-1.85,5.41,18.2,18.2,0,0,1-4.08,5.28,22.09,22.09,0,0,1-5.56,3.56,27.9,27.9,0,0,1-6.67,2,43.4,43.4,0,0,1-7.38.62,45,45,0,0,1-7.68-.65,30.21,30.21,0,0,1-6.24-1.68V161.41a33.84,33.84,0,0,0,6.08,1.81,32.81,32.81,0,0,0,6.41.65q6.15,0,8.94-2.85t2.78-8.42Zm54.63,88.24q-9.46,0-15.67-3.21a22.29,22.29,0,0,1-9.39-8.64A23.24,23.24,0,0,1,394.5,159a34.46,34.46,0,0,1-.81-7.77V112.92H409v36.71a28.07,28.07,0,0,0,.46,5.47,14.2,14.2,0,0,0,1.35,4,9.87,9.87,0,0,0,4.41,4.24,15.31,15.31,0,0,0,6.8,1.39,15.12,15.12,0,0,0,7.09-1.55,10,10,0,0,0,4.43-4.73,19.71,19.71,0,0,0,1.49-8.48v-37H450.4v38.32a28.33,28.33,0,0,1-2.65,12.89,21.65,21.65,0,0,1-3.85,5.4,22.73,22.73,0,0,1-5.57,4.15,29.28,29.28,0,0,1-7.25,2.65A39.82,39.82,0,0,1,422.05,177.27Zm119.72-39.82c0-1.33,0-2.59-.13-3.75a18.25,18.25,0,0,0-.46-3,8.51,8.51,0,0,0-2.78-4.59,9,9,0,0,0-5.83-1.82,15.67,15.67,0,0,0-4.14.59,22.64,22.64,0,0,0-4.24,1.65,24.09,24.09,0,0,0-4,2.59,23.66,23.66,0,0,0-3.46,3.4v43.18H501.37v-38.2c0-1.33,0-2.59-.13-3.75a19.44,19.44,0,0,0-.45-3,8.67,8.67,0,0,0-2.76-4.59,9,9,0,0,0-5.85-1.82,15.69,15.69,0,0,0-4.15.59,22.64,22.64,0,0,0-4.24,1.65,23.61,23.61,0,0,0-4,2.59,23.24,23.24,0,0,0-3.47,3.4v43.18H461V112.92h12.69l1.42,8.74h.26a23,23,0,0,1,3.43-3.82,23.69,23.69,0,0,1,4.7-3.31,26.93,26.93,0,0,1,5.76-2.29,24.32,24.32,0,0,1,6.64-.88A22.62,22.62,0,0,1,507,114.11a17.69,17.69,0,0,1,7.55,8.58h.25a31.24,31.24,0,0,1,4-4.6,25.11,25.11,0,0,1,5-3.56,26.64,26.64,0,0,1,5.86-2.33,25.84,25.84,0,0,1,6.7-.84,21.87,21.87,0,0,1,11.3,2.82,18.45,18.45,0,0,1,7,7.54,16.8,16.8,0,0,1,1.1,2.69,23.36,23.36,0,0,1,.74,3.27,36.69,36.69,0,0,1,.42,4c.09,1.47.13,3.15.13,5.05v38.91H541.77Zm57,39.82a22.11,22.11,0,0,1-9.16-1.85,22.53,22.53,0,0,1-6.83-4.56h-.26c0,.86.08,2.08.13,3.66s.06,3.29.06,5.15v26.09H567.37V112.92h13.46l.65,7h.26a22.59,22.59,0,0,1,7.32-6.18,21.3,21.3,0,0,1,10.35-2.43,27.85,27.85,0,0,1,10.07,1.91,24.08,24.08,0,0,1,8.77,5.86,28.92,28.92,0,0,1,6.12,10,40,40,0,0,1,2.3,14.31,42,42,0,0,1-2.46,15.12,31.26,31.26,0,0,1-6.47,10.55,25.92,25.92,0,0,1-19,8.19Zm-2-53.61a16.89,16.89,0,0,0-7.64,2,21.89,21.89,0,0,0-6.41,5.14v28A19.13,19.13,0,0,0,585,161a18.73,18.73,0,0,0,3.05,2,18.28,18.28,0,0,0,3.72,1.49,15.29,15.29,0,0,0,4.24.58,12.65,12.65,0,0,0,11-5.82,21.49,21.49,0,0,0,2.82-6.64,39.13,39.13,0,0,0,0-17.45,18.75,18.75,0,0,0-2.85-6.34,12.14,12.14,0,0,0-4.44-3.82A12.58,12.58,0,0,0,596.76,123.66Zm84-26.87a39.59,39.59,0,0,0-13.6,2.3,30.05,30.05,0,0,0-11,6.87,32.23,32.23,0,0,0-7.34,11.33,42.53,42.53,0,0,0-2.69,15.76,43.72,43.72,0,0,0,2.49,15.51,27.65,27.65,0,0,0,18.12,17.25,47,47,0,0,0,14.39,2.07c1.44,0,3-.07,4.59-.22s3.24-.37,4.88-.65,3.23-.61,4.78-1a42.86,42.86,0,0,0,4.17-1.2v9.32a43.8,43.8,0,0,1-8.87,2.3,65.45,65.45,0,0,1-10.36.81,56.31,56.31,0,0,1-19.17-3,37.65,37.65,0,0,1-14-8.64,36.37,36.37,0,0,1-8.58-13.76,54.19,54.19,0,0,1-2.92-18.42,54.09,54.09,0,0,1,3.08-18.58,41.22,41.22,0,0,1,8.87-14.57,40.09,40.09,0,0,1,14-9.48,48.24,48.24,0,0,1,18.55-3.4c1.81,0,3.6.07,5.37.22s3.46.37,5.08.65,3.12.62,4.5,1a28.52,28.52,0,0,1,3.56,1.23v9.33a65.22,65.22,0,0,0-8.59-2.17A50.83,50.83,0,0,0,680.74,96.79Zm31.58,78.86V81.9h10v93.75ZM790.78,145a40,40,0,0,1-2.07,13.21,29.91,29.91,0,0,1-5.86,10.2,26.07,26.07,0,0,1-9.16,6.57,30.08,30.08,0,0,1-12.05,2.33,30.82,30.82,0,0,1-12.27-2.33,26,26,0,0,1-9.19-6.57,29.14,29.14,0,0,1-5.79-10.2,41.1,41.1,0,0,1-2-13.21,40.25,40.25,0,0,1,2.07-13.27,30.24,30.24,0,0,1,5.86-10.23,25.71,25.71,0,0,1,9.19-6.6,30.12,30.12,0,0,1,12.08-2.33,30.71,30.71,0,0,1,12.24,2.33,25.28,25.28,0,0,1,9.19,6.6,29.72,29.72,0,0,1,5.76,10.23A41.35,41.35,0,0,1,790.78,145Zm-10.49,0a33.8,33.8,0,0,0-1.39-10.13,22.78,22.78,0,0,0-3.88-7.51,16.54,16.54,0,0,0-5.93-4.66,18.53,18.53,0,0,0-15,0,16.54,16.54,0,0,0-5.93,4.66,22.6,22.6,0,0,0-3.88,7.51,37.39,37.39,0,0,0,0,20.2,21.86,21.86,0,0,0,3.92,7.48,16.92,16.92,0,0,0,6,4.63,17.67,17.67,0,0,0,7.51,1.58,17.41,17.41,0,0,0,7.48-1.58,16.75,16.75,0,0,0,5.9-4.63A22.33,22.33,0,0,0,778.9,155,33.53,33.53,0,0,0,780.29,145Zm45.26,32.31a32.87,32.87,0,0,1-8.61-1,23.56,23.56,0,0,1-6.71-2.91,19.45,19.45,0,0,1-4.88-4.5,22,22,0,0,1-3.17-5.73,22.49,22.49,0,0,1-1.3-5.11,44.13,44.13,0,0,1-.39-6.09V114.15h10v37.68a23.23,23.23,0,0,0,1.36,8.54,12.67,12.67,0,0,0,5,6.12,16,16,0,0,0,8.84,2.23,15.49,15.49,0,0,0,9.16-2.46,13.53,13.53,0,0,0,5-6.6,24.21,24.21,0,0,0,1.1-7.83V114.15h10V152a45.5,45.5,0,0,1-.35,5.79,25.66,25.66,0,0,1-1.14,4.95,22.11,22.11,0,0,1-3.2,5.86,19.71,19.71,0,0,1-5,4.63,24,24,0,0,1-6.89,3A33.77,33.77,0,0,1,825.55,177.27Zm35.19-31.59A45.78,45.78,0,0,1,862,134.31a35.53,35.53,0,0,1,3.33-8.64,24,24,0,0,1,4.85-6.18,28.54,28.54,0,0,1,5.77-4,24.09,24.09,0,0,1,6-2.23,26.48,26.48,0,0,1,5.8-.68,23.52,23.52,0,0,1,9.77,1.87,22.84,22.84,0,0,1,7.45,5.51h.19v-38h10v93.75h-7.58l-2.07-6.86h-.26a30.43,30.43,0,0,1-2.72,3,18.43,18.43,0,0,1-3.66,2.75,20,20,0,0,1-4.85,2,24.85,24.85,0,0,1-6.38.74,29.41,29.41,0,0,1-9.91-1.72,22.87,22.87,0,0,1-8.64-5.5,28,28,0,0,1-6.12-9.77A40.49,40.49,0,0,1,860.74,145.68Zm10.49-.13a35.75,35.75,0,0,0,1.2,9.61,21.8,21.8,0,0,0,3.46,7.32,15.44,15.44,0,0,0,5.57,4.63,17.13,17.13,0,0,0,7.58,1.61,18.63,18.63,0,0,0,5.76-.84,20.53,20.53,0,0,0,4.63-2.13,20.14,20.14,0,0,0,3.49-2.76,19.39,19.39,0,0,0,2.3-2.68V128.13a24.5,24.5,0,0,0-7.18-5.08,20.58,20.58,0,0,0-8.81-1.91,18.37,18.37,0,0,0-6,1.07,14.72,14.72,0,0,0-5.83,3.85,21.22,21.22,0,0,0-4.43,7.48A34.77,34.77,0,0,0,871.23,145.55ZM938.07,85.8a6.32,6.32,0,1,1-6.29-6.28A6.23,6.23,0,0,1,938.07,85.8ZM927,85.8a4.81,4.81,0,0,0,4.79,5,5,5,0,0,0,0-10A4.82,4.82,0,0,0,927,85.8Zm3.78,3.29h-1.42V82.82a11.67,11.67,0,0,1,2.36-.2,3.81,3.81,0,0,1,2.13.46,1.76,1.76,0,0,1,.6,1.38,1.58,1.58,0,0,1-1.27,1.45V86a1.83,1.83,0,0,1,1.12,1.53,4.92,4.92,0,0,0,.45,1.57h-1.53a5.39,5.39,0,0,1-.49-1.53c-.11-.69-.49-1-1.27-1h-.68Zm0-3.56h.67c.79,0,1.43-.27,1.43-.92s-.42-1-1.31-1a3.34,3.34,0,0,0-.79.07Z"/></svg>